<svg class="svg-icon" style="width: 1em; height: 1em;vertical-align: middle;fill: currentColor;overflow: hidden;" viewBox="0 0 1024 1024" version="1.1" xmlns="http://www.w3.org/2000/svg"><path d="M529.611373 1023.38565c-146.112965 0-270.826063-51.707812-374.344078-155.225827C51.74928 764.641808 0.041469 639.826318 0.041469 493.815745c0-105.053891 29.693595-202.326012 88.978393-292.22593 59.38719-89.797526 137.000103-155.942569 232.83874-198.63991 6.041111-4.607627 12.184613-3.788493 18.225724 2.252618 7.576986 4.607627 9.931996 11.365479 6.860244 20.580733C322.677735 83.736961 310.493122 142.202626 310.493122 201.589815c0 135.464227 48.328885 251.474031 144.986656 348.131801 96.657771 96.657771 212.667574 144.986656 348.131801 144.986656 74.541162 0 139.252721-11.365479 194.032283-34.19883C1003.684974 655.799424 1009.726084 656.618558 1015.767195 662.659669c7.576986 4.607627 9.931996 11.365479 6.860244 20.580733C983.104241 786.758417 918.802249 869.286132 829.721465 930.925939 740.743072 992.565746 640.706375 1023.38565 529.611373 1023.38565zM296.772633 55.47685c-79.148789 44.130825-142.324472 105.770633-189.424657 184.919422C60.1454 319.545061 36.595308 404.018219 36.595308 493.815745c0 135.464227 48.328885 251.474031 144.986656 348.131801 96.657771 96.657771 212.667574 144.986656 348.131801 144.986656 97.374513 0 185.636163-25.085968 264.784952-75.360296C873.545115 861.299579 932.829913 793.618661 972.455503 708.32637 925.252927 723.582734 868.937488 731.15972 803.509188 731.15972c-146.112965 0-270.826063-51.707812-374.344078-155.225827C325.647095 472.415878 273.939283 347.70278 273.939283 201.589815 273.939283 158.994865 281.516269 110.256413 296.772633 55.47685z"  /></svg>